<svg width="96" height="35" viewBox="0 0 96 35" fill="none" xmlns="http://www.w3.org/2000/svg">
<path d="M57.8732 16.0078V7.90797H58.822L62.4554 14.0291H61.9462L65.5333 7.90797H66.4822L66.4937 16.0078H65.3829L65.3713 9.65522H65.6375L62.4438 15.0243H61.9115L58.6947 9.65522H58.984V16.0078H57.8732ZM71.4934 16.0772C70.8377 16.0772 70.2591 15.9422 69.7577 15.6722C69.264 15.4023 68.8783 15.032 68.6006 14.5614C68.3306 14.0909 68.1956 13.5509 68.1956 12.9414C68.1956 12.332 68.3267 11.792 68.589 11.3215C68.859 10.8509 69.2254 10.4845 69.6883 10.2222C70.1588 9.95222 70.6873 9.81722 71.2735 9.81722C71.8675 9.81722 72.3921 9.94836 72.8472 10.2106C73.3023 10.4729 73.6572 10.8432 73.9118 11.3215C74.174 11.792 74.3052 12.3436 74.3052 12.9762C74.3052 13.0224 74.3013 13.0764 74.2936 13.1382C74.2936 13.1999 74.2898 13.2577 74.282 13.3117H69.0634V12.5133H73.7035L73.2522 12.791C73.2599 12.3976 73.1789 12.0466 73.0092 11.738C72.8395 11.4295 72.6042 11.1903 72.3034 11.0206C72.0102 10.8432 71.667 10.7545 71.2735 10.7545C70.8878 10.7545 70.5445 10.8432 70.2437 11.0206C69.9428 11.1903 69.7076 11.4333 69.5379 11.7496C69.3681 12.0582 69.2833 12.413 69.2833 12.8142V12.9993C69.2833 13.4081 69.3759 13.7746 69.561 14.0986C69.7538 14.4148 70.02 14.6617 70.3594 14.8391C70.6988 15.0165 71.0884 15.1053 71.5281 15.1053C71.8907 15.1053 72.2185 15.0435 72.5117 14.9201C72.8125 14.7967 73.0748 14.6116 73.2985 14.3647L73.9118 15.0821C73.6341 15.4061 73.2869 15.653 72.8704 15.8227C72.4615 15.9924 72.0025 16.0772 71.4934 16.0772ZM78.3818 16.0772C77.7878 16.0772 77.2555 15.9461 76.7849 15.6838C76.3221 15.4215 75.9557 15.0551 75.6857 14.5846C75.4157 14.114 75.2807 13.5663 75.2807 12.9414C75.2807 12.3166 75.4157 11.7728 75.6857 11.3099C75.9557 10.8393 76.3221 10.4729 76.7849 10.2106C77.2555 9.94836 77.7878 9.81722 78.3818 9.81722C78.8986 9.81722 79.3653 9.93293 79.7819 10.1644C80.1985 10.3958 80.5302 10.7429 80.777 11.2058C81.0316 11.6686 81.1589 12.2472 81.1589 12.9414C81.1589 13.6357 81.0354 14.2143 80.7886 14.6771C80.5494 15.14 80.2216 15.491 79.805 15.7301C79.3885 15.9615 78.914 16.0772 78.3818 16.0772ZM78.4743 15.1053C78.8601 15.1053 79.2072 15.0165 79.5158 14.8391C79.832 14.6617 80.0789 14.411 80.2563 14.087C80.4414 13.7553 80.534 13.3734 80.534 12.9414C80.534 12.5017 80.4414 12.1237 80.2563 11.8075C80.0789 11.4835 79.832 11.2328 79.5158 11.0553C79.2072 10.8779 78.8601 10.7892 78.4743 10.7892C78.0809 10.7892 77.7299 10.8779 77.4214 11.0553C77.1128 11.2328 76.8659 11.4835 76.6808 11.8075C76.4957 12.1237 76.4031 12.5017 76.4031 12.9414C76.4031 13.3734 76.4957 13.7553 76.6808 14.087C76.8659 14.411 77.1128 14.6617 77.4214 14.8391C77.7299 15.0165 78.0809 15.1053 78.4743 15.1053ZM80.5687 16.0078V14.3531L80.6382 12.9299L80.5224 11.5066V7.42198H81.6333V16.0078H80.5687ZM83.7351 16.0078V9.87508H84.8459V16.0078H83.7351ZM84.2905 8.69481C84.0745 8.69481 83.8932 8.62539 83.7467 8.48653C83.6078 8.34768 83.5384 8.17797 83.5384 7.9774C83.5384 7.76912 83.6078 7.59555 83.7467 7.4567C83.8932 7.31784 84.0745 7.24841 84.2905 7.24841C84.5065 7.24841 84.6839 7.31784 84.8228 7.4567C84.9693 7.58784 85.0426 7.75369 85.0426 7.95426C85.0426 8.16254 84.9732 8.33996 84.8343 8.48653C84.6955 8.62539 84.5142 8.69481 84.2905 8.69481ZM90.7738 16.0078V14.7118L90.716 14.4688V12.2587C90.716 11.7882 90.5771 11.4256 90.2994 11.1711C90.0294 10.9088 89.6205 10.7776 89.0728 10.7776C88.7103 10.7776 88.3554 10.8393 88.0083 10.9628C87.6612 11.0785 87.368 11.2366 87.1289 11.4372L86.666 10.6041C86.9823 10.3495 87.3603 10.1566 87.8 10.0255C88.2474 9.88665 88.7141 9.81722 89.2001 9.81722C90.041 9.81722 90.689 10.0216 91.1441 10.4305C91.5992 10.8393 91.8268 11.4642 91.8268 12.305V16.0078H90.7738ZM88.7604 16.0772C88.3053 16.0772 87.9041 16.0001 87.557 15.8458C87.2176 15.6915 86.9553 15.4794 86.7702 15.2094C86.585 14.9317 86.4925 14.6193 86.4925 14.2721C86.4925 13.9404 86.5696 13.6396 86.7239 13.3696C86.8859 13.0996 87.1443 12.8836 87.4992 12.7216C87.8617 12.5596 88.3477 12.4786 88.9571 12.4786H90.9011V13.277H89.0034C88.448 13.277 88.0739 13.3696 87.881 13.5547C87.6882 13.7399 87.5917 13.9636 87.5917 14.2258C87.5917 14.5267 87.7113 14.7697 87.9504 14.9548C88.1896 15.1323 88.5213 15.221 88.9456 15.221C89.3621 15.221 89.7247 15.1284 90.0332 14.9433C90.3495 14.7581 90.5771 14.4881 90.716 14.1333L90.9358 14.897C90.7892 15.2595 90.5308 15.5488 90.1605 15.7648C89.7903 15.9731 89.3235 16.0772 88.7604 16.0772ZM61.5297 27.1004C60.9048 27.1004 60.3301 27.0001 59.8056 26.7995C59.281 26.5912 58.8259 26.302 58.4402 25.9317C58.0545 25.5537 57.7536 25.114 57.5376 24.6126C57.3216 24.1112 57.2136 23.5596 57.2136 22.9579C57.2136 22.3562 57.3216 21.8046 57.5376 21.3032C57.7536 20.8018 58.0545 20.3659 58.4402 19.9957C58.8336 19.6177 59.2926 19.3284 59.8171 19.1278C60.3417 18.9195 60.9203 18.8154 61.5528 18.8154C62.1931 18.8154 62.7794 18.9195 63.3116 19.1278C63.8439 19.3361 64.2952 19.6485 64.6655 20.0651L63.9481 20.7825C63.6164 20.4585 63.2538 20.2232 62.8604 20.0767C62.4747 19.9224 62.0542 19.8452 61.5991 19.8452C61.1363 19.8452 60.7043 19.9224 60.3031 20.0767C59.9097 20.2309 59.5664 20.4469 59.2733 20.7247C58.9879 21.0024 58.7642 21.3341 58.6022 21.7198C58.4479 22.0978 58.3707 22.5105 58.3707 22.9579C58.3707 23.3976 58.4479 23.8103 58.6022 24.196C58.7642 24.574 58.9879 24.9057 59.2733 25.1911C59.5664 25.4688 59.9097 25.6848 60.3031 25.8391C60.6966 25.9934 61.1247 26.0705 61.5875 26.0705C62.0195 26.0705 62.4322 26.005 62.8257 25.8738C63.2268 25.735 63.5971 25.5074 63.9365 25.1911L64.596 26.0705C64.1949 26.41 63.7243 26.6684 63.1844 26.8458C62.6521 27.0155 62.1005 27.1004 61.5297 27.1004ZM63.4852 25.9201V22.9116H64.596V26.0705L63.4852 25.9201ZM66.6495 27.0078V20.8751H67.714V22.5413L67.6099 22.1248C67.7796 21.7005 68.065 21.3765 68.4662 21.1528C68.8673 20.9291 69.361 20.8172 69.9473 20.8172V21.8933C69.901 21.8856 69.8547 21.8818 69.8084 21.8818C69.7698 21.8818 69.7313 21.8818 69.6927 21.8818C69.0987 21.8818 68.6282 22.0592 68.281 22.414C67.9339 22.7689 67.7603 23.2819 67.7603 23.953V27.0078H66.6495ZM73.8865 27.0772C73.2694 27.0772 72.7217 26.9422 72.2434 26.6722C71.7652 26.4023 71.3872 26.032 71.1095 25.5614C70.8317 25.0831 70.6929 24.5431 70.6929 23.9414C70.6929 23.332 70.8317 22.792 71.1095 22.3215C71.3872 21.8509 71.7652 21.4845 72.2434 21.2222C72.7217 20.9522 73.2694 20.8172 73.8865 20.8172C74.496 20.8172 75.0398 20.9522 75.5181 21.2222C76.0041 21.4845 76.3821 21.8509 76.6521 22.3215C76.9298 22.7843 77.0686 23.3243 77.0686 23.9414C77.0686 24.5509 76.9298 25.0909 76.6521 25.5614C76.3821 26.032 76.0041 26.4023 75.5181 26.6722C75.0398 26.9422 74.496 27.0772 73.8865 27.0772ZM73.8865 26.1053C74.28 26.1053 74.631 26.0165 74.9395 25.8391C75.2558 25.6617 75.5027 25.411 75.6801 25.087C75.8575 24.7553 75.9462 24.3734 75.9462 23.9414C75.9462 23.5017 75.8575 23.1237 75.6801 22.8075C75.5027 22.4835 75.2558 22.2328 74.9395 22.0553C74.631 21.8779 74.28 21.7892 73.8865 21.7892C73.4931 21.7892 73.1421 21.8779 72.8336 22.0553C72.525 22.2328 72.2781 22.4835 72.093 22.8075C71.9079 23.1237 71.8153 23.5017 71.8153 23.9414C71.8153 24.3734 71.9079 24.7553 72.093 25.087C72.2781 25.411 72.525 25.6617 72.8336 25.8391C73.1421 26.0165 73.4931 26.1053 73.8865 26.1053ZM81.1853 27.0772C80.6607 27.0772 80.1979 26.9808 79.7967 26.788C79.4033 26.5951 79.0947 26.302 78.871 25.9085C78.655 25.5074 78.547 25.006 78.547 24.4043V20.8751H79.6579V24.277C79.6579 24.8787 79.8006 25.33 80.086 25.6308C80.3791 25.9317 80.788 26.0821 81.3125 26.0821C81.6982 26.0821 82.0338 26.005 82.3192 25.8507C82.6047 25.6887 82.8245 25.4573 82.9788 25.1564C83.1331 24.8479 83.2102 24.4776 83.2102 24.0456V20.8751H84.3211V27.0078H83.2681V25.3531L83.4416 25.7928C83.2411 26.2017 82.9402 26.518 82.5391 26.7417C82.138 26.9654 81.6867 27.0772 81.1853 27.0772ZM89.6873 27.0772C89.1782 27.0772 88.7114 26.9615 88.2872 26.7301C87.8706 26.491 87.535 26.14 87.2805 25.6771C87.0336 25.2143 86.9102 24.6357 86.9102 23.9414C86.9102 23.2472 87.0298 22.6686 87.2689 22.2058C87.5158 21.7429 87.8475 21.3958 88.264 21.1644C88.6883 20.9329 89.1627 20.8172 89.6873 20.8172C90.289 20.8172 90.8213 20.9484 91.2841 21.2106C91.747 21.4729 92.1134 21.8393 92.3834 22.3099C92.6534 22.7728 92.7884 23.3166 92.7884 23.9414C92.7884 24.5663 92.6534 25.114 92.3834 25.5846C92.1134 26.0551 91.747 26.4215 91.2841 26.6838C90.8213 26.9461 90.289 27.0772 89.6873 27.0772ZM86.4358 29.2526V20.8751H87.5003V22.5298L87.4309 23.953L87.5466 25.3763V29.2526H86.4358ZM89.5947 26.1053C89.9881 26.1053 90.3391 26.0165 90.6477 25.8391C90.964 25.6617 91.2108 25.411 91.3883 25.087C91.5734 24.7553 91.666 24.3734 91.666 23.9414C91.666 23.5017 91.5734 23.1237 91.3883 22.8075C91.2108 22.4835 90.964 22.2328 90.6477 22.0553C90.3391 21.8779 89.9881 21.7892 89.5947 21.7892C89.209 21.7892 88.858 21.8779 88.5417 22.0553C88.2332 22.2328 87.9863 22.4835 87.8012 22.8075C87.6238 23.1237 87.535 23.5017 87.535 23.9414C87.535 24.3734 87.6238 24.7553 87.8012 25.087C87.9863 25.411 88.2332 25.6617 88.5417 25.8391C88.858 26.0165 89.209 26.1053 89.5947 26.1053Z" fill="white"/>
<path d="M7.65748 28.2901C6.22654 28.2901 4.8246 28.087 3.45167 27.6809C2.09807 27.2555 0.957185 26.6754 0.0290056 25.9406L1.65332 23.011C2.38813 23.6105 3.27763 24.0939 4.32183 24.4613C5.36604 24.8287 6.45858 25.0124 7.59947 25.0124C8.95306 25.0124 10.0069 24.7417 10.7611 24.2003C11.5152 23.6395 11.8923 22.8853 11.8923 21.9378C11.8923 21.0097 11.5442 20.2748 10.8481 19.7334C10.152 19.192 9.03041 18.9212 7.48345 18.9212H5.62709V16.3397L11.4282 9.43641L11.9213 10.8577H1.0152V7.69608H14.8509V10.2196L9.04975 17.1229L7.07737 15.9627H8.20859C10.7031 15.9627 12.5691 16.5235 13.8067 17.645C15.0636 18.7472 15.692 20.1685 15.692 21.9088C15.692 23.0497 15.402 24.1036 14.8219 25.0704C14.2418 26.0373 13.3522 26.8204 12.1533 27.4199C10.9738 28 9.47516 28.2901 7.65748 28.2901ZM26.9471 28.2901C25.1101 28.2901 23.5341 27.9033 22.2192 27.1298C20.9043 26.337 19.8987 25.1961 19.2026 23.7072C18.5065 22.2182 18.1584 20.3812 18.1584 18.1961C18.1584 15.8757 18.5742 13.9129 19.4057 12.308C20.2565 10.703 21.4264 9.48476 22.9153 8.65326C24.4236 7.82177 26.1543 7.40602 28.1073 7.40602C29.1322 7.40602 30.1087 7.51238 31.0369 7.72508C31.9844 7.93779 32.7869 8.26652 33.4444 8.71128L32.0521 11.5538C31.4913 11.1864 30.8822 10.935 30.2247 10.7997C29.5866 10.645 28.9098 10.5676 28.1944 10.5676C26.28 10.5676 24.762 11.1574 23.6405 12.337C22.5189 13.5165 21.9581 15.2569 21.9581 17.558C21.9581 17.9254 21.9678 18.3605 21.9872 18.8632C22.0065 19.3467 22.0742 19.8398 22.1902 20.3425L21.03 19.0663C21.378 18.2735 21.8518 17.616 22.4512 17.0939C23.07 16.5525 23.7952 16.1464 24.6267 15.8757C25.4775 15.6049 26.396 15.4696 27.3822 15.4696C28.7165 15.4696 29.9057 15.7306 30.9499 16.2527C31.9941 16.7555 32.8256 17.4806 33.4444 18.4282C34.0632 19.3563 34.3725 20.4489 34.3725 21.7058C34.3725 23.04 34.0438 24.2003 33.3864 25.1865C32.7289 26.1726 31.8394 26.9365 30.7178 27.4779C29.5963 28.0193 28.3394 28.2901 26.9471 28.2901ZM26.7441 25.3315C27.5176 25.3315 28.204 25.1961 28.8035 24.9254C29.4029 24.6354 29.867 24.2293 30.1957 23.7072C30.5438 23.1851 30.7178 22.576 30.7178 21.8798C30.7178 20.8163 30.3504 19.9751 29.6156 19.3563C28.8808 18.7375 27.8946 18.4282 26.6571 18.4282C25.8449 18.4282 25.1294 18.5828 24.5106 18.8922C23.9112 19.1823 23.4278 19.5884 23.0604 20.1105C22.7123 20.6326 22.5383 21.232 22.5383 21.9088C22.5383 22.5276 22.7026 23.0981 23.0314 23.6202C23.3601 24.1423 23.8338 24.558 24.4526 24.8674C25.0908 25.1768 25.8546 25.3315 26.7441 25.3315ZM43.0729 28.2901C41.6419 28.2901 40.24 28.087 38.8671 27.6809C37.5135 27.2555 36.3726 26.6754 35.4444 25.9406L37.0397 23.011C37.7745 23.6105 38.664 24.0939 39.7082 24.4613C40.7718 24.8287 41.874 25.0124 43.0149 25.0124C44.3491 25.0124 45.3933 24.732 46.1475 24.1713C46.9209 23.6105 47.3077 22.8563 47.3077 21.9088C47.3077 21.2707 47.1433 20.7099 46.8146 20.2265C46.5052 19.7431 45.9444 19.3757 45.1323 19.1243C44.3394 18.8729 43.2469 18.7472 41.8546 18.7472H36.9527L37.9969 7.69608H49.9182V10.8577H39.3892L41.3615 9.05934L40.5784 17.3259L38.606 15.5566H42.6958C44.7068 15.5566 46.3215 15.8273 47.5397 16.3688C48.7773 16.8909 49.6765 17.6257 50.2372 18.5732C50.8174 19.5014 51.1074 20.5649 51.1074 21.7638C51.1074 22.9434 50.8174 24.0262 50.2372 25.0124C49.6571 25.9986 48.7676 26.7914 47.5687 27.3909C46.3892 27.9903 44.8905 28.2901 43.0729 28.2901Z" fill="white"/>
</svg>
