<svg width="179" height="56" viewBox="0 0 179 56" fill="none" xmlns="http://www.w3.org/2000/svg">
<path d="M65.3714 35.5157L65.6012 34.673L67.593 30H68.5123V36.052H67.976V31.3789V30.5362H67.8994L67.6696 31.3789L65.6778 36.052H65.0649L63.0731 31.3789L62.7667 30.5362V31.3789V36.052H62.2305V30H63.0731L65.0649 34.673L65.3714 35.5157Z" fill="#631E3B"/>
<path d="M79.1611 30V30.5362H76.7863V32.6813H79.0079V33.1409H76.7863V35.5157H79.3143V36.052H76.25V30H79.1611Z" fill="#631E3B"/>
<path d="M87.128 30V32.6813H90.269V30H90.8052V36.052H90.269V33.1409H87.128V36.052H86.5918V30H87.128Z" fill="#631E3B"/>
<path d="M101.452 30V30.5362H99.0773V32.6813H101.299V33.1409H99.0773V35.5157H101.605V36.052H98.541V30H101.452Z" fill="#631E3B"/>
<path d="M112.945 30V35.5157H113.634V37.2777H113.098V35.9754H108.732V37.2777H108.195V35.5157H108.732C109.574 34.2134 109.574 33.2175 109.574 31.6854V30.0766H112.945M110.11 30.5362V31.762C110.11 33.0643 110.187 34.2134 109.344 35.5923H112.409V30.6129H110.11V30.5362Z" fill="#631E3B"/>
<path d="M123.974 30V32.7579L126.425 30H127.115L124.587 32.8345L127.345 36.052H126.578L123.974 32.9877V36.052H123.361V32.9877L120.833 36.052H119.99L122.825 32.8345L120.297 30H120.986L123.361 32.7579V30H123.974Z" fill="#631E3B"/>
<path d="M137.383 35.5157L137.613 34.673L139.681 30H140.524V36.052H139.988V31.3789V30.5362L139.681 31.3789L137.69 36.052H137.077L135.085 31.3789L134.778 30.5362V31.3789V36.052H134.242V30H135.161L137.153 34.673L137.383 35.5157Z" fill="#631E3B"/>
<path d="M151.173 30V30.5362H148.798V32.6813H151.02V33.1409H148.798V35.5157H151.326V36.052H148.262V30H151.173Z" fill="#631E3B"/>
<path d="M159.14 30V32.6813H162.281V30H162.817V36.052H162.281V33.1409H159.14V36.052H158.604V30H159.14Z" fill="#631E3B"/>
<path d="M173.999 30V30.5362H172.16V36.052H171.624V30.5362H169.785V30H173.999Z" fill="#631E3B"/>
<path d="M62.6129 40.8047L64.0684 43.7924L64.3748 44.4818L64.6047 43.7924L65.8304 40.8047H66.4432L64.4514 45.5543C64.2216 46.014 64.0684 46.4736 63.3789 46.4736C63.1491 46.4736 62.9959 46.4736 62.8427 46.397V45.9374C62.9959 46.014 63.1491 46.014 63.3023 46.014C63.6088 46.014 63.762 45.7842 63.9152 45.4011L64.0684 45.0947L62 40.8047H62.6129Z" fill="#631E3B"/>
<path d="M71.6516 40.8047V46.397H71.1153V41.2643H68.2042V46.397H67.668V40.8047H71.6516Z" fill="#631E3B"/>
<path d="M75.0239 40.8047C76.0964 40.8047 76.7093 41.4942 76.7093 42.4134C76.7093 43.4093 76.0964 44.0222 75.0239 44.0222H74.1046V46.397H73.5684V40.8047H75.0239ZM74.1046 43.5626H74.9473C75.2537 43.5626 76.173 43.4859 76.173 42.4134C76.173 41.2643 75.1005 41.2643 74.9473 41.2643H74.1046V43.5626Z" fill="#631E3B"/>
<path d="M79.8486 40.8047L82.0702 46.397H81.5339L80.9211 44.8649H78.0866L77.4738 46.397H76.9375L79.1591 40.8047H79.8486ZM79.4655 41.3409L79.3123 41.8772L78.3164 44.4052H80.7679L79.772 41.8772L79.4655 41.3409Z" fill="#631E3B"/>
<path d="M84.7509 40.8047C85.9 40.8047 86.3597 41.4175 86.3597 42.1836C86.3597 42.7199 86.1298 43.1795 85.3638 43.4859C86.0532 43.6392 86.5129 44.1754 86.5129 44.7883C86.5129 46.3204 84.9041 46.397 84.6743 46.397H83.2188V40.8047H84.7509ZM83.8316 43.2561H84.7509C85.517 43.2561 85.9 42.7965 85.9 42.1836C85.9 41.4942 85.3638 41.1877 84.7509 41.1877H83.8316V43.2561ZM83.8316 45.9374H84.6743C85.1339 45.9374 86.0532 45.8608 86.0532 44.7883C86.0532 44.0988 85.517 43.7158 84.7509 43.7158H83.8316V45.9374Z" fill="#631E3B"/>
<path d="M91.9526 40.8047V46.397H91.4163V41.2643H89.2713V42.7199C89.2713 44.6351 89.2713 46.4736 87.969 46.4736C87.8924 46.4736 87.7392 46.4736 87.5859 46.397V45.9374C87.6625 45.9374 87.8158 46.014 87.8924 46.014C88.8883 46.014 88.735 43.6392 88.735 42.7199V40.8047H91.9526Z" fill="#631E3B"/>
<path d="M96.9321 46.397H96.3959V44.0222H95.2468L94.0211 46.397H93.4082L94.7871 43.869C94.0977 43.6392 93.638 43.0263 93.638 42.4134C93.638 41.5708 94.1743 40.8047 95.4 40.8047H97.0088V46.397M96.3959 41.2643H95.3234C94.6339 41.2643 94.1743 41.8006 94.1743 42.4134C94.1743 43.1795 94.7105 43.5626 95.3234 43.5626H96.3959V41.2643Z" fill="#631E3B"/>
<path d="M100.305 43.2546C100.382 41.9523 101.224 40.7266 102.833 40.7266C104.519 40.7266 105.361 42.1055 105.361 43.6376C105.361 45.4762 104.212 46.4721 102.833 46.4721C101.071 46.4721 100.305 45.0932 100.305 43.7142H99.3859V46.3955H98.8496V40.8032H99.3859V43.2546H100.305ZM102.833 46.0125C103.829 46.0125 104.825 45.323 104.825 43.6376C104.825 41.9523 103.829 41.1862 102.833 41.1862C101.837 41.1862 100.841 41.9523 100.841 43.6376C100.918 45.323 101.914 46.0125 102.833 46.0125Z" fill="#631E3B"/>
<path d="M110.493 40.8047V45.9374H113.021V40.8047H113.557V45.9374H114.17V47.6227H113.634V46.397H106.893V40.8047H107.429V45.9374H109.957V40.8047H110.493Z" fill="#631E3B"/>
<path d="M117.847 40.8047L120.069 46.397H119.456L118.843 44.8649H116.085L115.472 46.397H114.859L117.081 40.8047H117.847ZM117.464 41.3409L117.311 41.8772L116.315 44.4052H118.69L117.694 41.8772L117.464 41.3409Z" fill="#631E3B"/>
<path d="M124.36 46.397H123.824V44.0222H122.675L121.449 46.397H120.836L122.215 43.869C121.525 43.6392 121.066 43.0263 121.066 42.4134C121.066 41.5708 121.602 40.8047 122.828 40.8047H124.436V46.397M123.824 41.2643H122.751C122.062 41.2643 121.602 41.8006 121.602 42.4134C121.602 43.1795 122.138 43.5626 122.751 43.5626H123.824V41.2643Z" fill="#631E3B"/>
<path d="M128.954 40.8047V43.4093L129.107 43.1795L131.559 40.8047H132.172L129.49 43.4859L132.478 46.397H131.789L129.107 43.7158L128.954 43.5626V46.397H128.418V40.8047H128.954Z" fill="#631E3B"/>
<path d="M135.389 40.7266C137.075 40.7266 137.917 42.1055 137.917 43.6376C137.917 45.4762 136.768 46.4721 135.389 46.4721C133.934 46.4721 132.861 45.4762 132.861 43.6376C132.861 42.1055 133.704 40.7266 135.389 40.7266ZM135.389 46.0125C136.385 46.0125 137.381 45.323 137.381 43.6376C137.381 41.9523 136.385 41.1862 135.389 41.1862C134.393 41.1862 133.398 41.9523 133.398 43.6376C133.398 45.323 134.393 46.0125 135.389 46.0125Z" fill="#631E3B"/>
<path d="M142.439 45.9374L142.669 45.1713L144.507 40.8047H145.35V46.397H144.814V42.0304V41.3409L144.507 42.0304L142.669 46.397H142.132L140.294 42.0304L139.987 41.3409V42.0304V46.397H139.451V40.8047H140.294L142.132 45.1713L142.362 45.9374H142.439Z" fill="#631E3B"/>
<path d="M151.247 40.8047V46.397H150.711V41.2643H147.8V46.397H147.264V40.8047H151.247Z" fill="#631E3B"/>
<path d="M155.308 40.8047L157.529 46.397H156.993L156.38 44.8649H153.622L153.009 46.397H152.396L154.618 40.8047H155.308ZM155.001 41.3409L154.848 41.8772L153.852 44.4052H156.303L155.308 41.8772L155.001 41.3409Z" fill="#631E3B"/>
<path d="M159.292 40.8047V43.2561H162.203V40.8047H162.739V46.397H162.203V43.7158H159.292V46.397H158.756V40.8047H159.292Z" fill="#631E3B"/>
<path d="M165.191 40.8047V45.0181L165.114 45.7076H165.191L165.497 45.0947L168.178 40.8047H168.791V46.397H168.255V42.1836V41.4942L167.948 42.0304L165.267 46.397H164.654V40.8047H165.191Z" fill="#631E3B"/>
<path d="M173.77 46.397H173.234V44.0222H172.085L170.859 46.397H170.246L171.625 43.869C170.936 43.6392 170.476 43.0263 170.476 42.4134C170.476 41.5708 171.012 40.8047 172.238 40.8047H173.847V46.397M173.234 41.2643H172.161C171.472 41.2643 171.012 41.8006 171.012 42.4134C171.012 43.1795 171.548 43.5626 172.161 43.5626H173.234V41.2643Z" fill="#631E3B"/>
<path fill-rule="evenodd" clip-rule="evenodd" d="M133.615 18.3094L140.999 15.3095V15.0787C140.999 14.6172 140.768 13.9249 140.307 13.6941H148.153C147.691 13.9249 147.461 14.6941 147.461 15.0787V23.1555C147.461 23.6171 147.691 24.3094 148.153 24.5401H140.307C140.768 24.3094 140.999 23.5402 140.999 23.1555V19.3094L133.615 22.2325V23.1555C133.615 23.6171 133.845 24.3094 134.307 24.5401H126.461C126.922 24.3094 127.153 23.5402 127.153 23.1555V15.0018C127.153 14.5403 126.922 13.848 126.461 13.6172H134.307C133.845 13.848 133.615 14.6172 133.615 15.0018V18.3094Z" fill="#631E3B"/>
<path fill-rule="evenodd" clip-rule="evenodd" d="M117.999 13.6172H111.076L103.845 23.694C103.614 23.9248 103.23 24.2325 102.691 24.5401H109.922C109.768 24.3863 109.691 24.2325 109.691 23.9248C109.691 23.7709 109.768 23.4632 110.153 22.9248L113.153 18.4633H113.23L116.23 22.9248C116.307 23.0017 116.307 23.1555 116.46 23.2325C116.537 23.3863 116.691 23.4632 116.691 23.6171C116.768 23.694 116.768 23.8478 116.768 23.8478C116.768 24.0786 116.691 24.3094 116.46 24.3094V24.3863H125.23C124.845 24.1555 124.614 24.0017 124.383 23.7709C124.153 23.5402 123.922 23.2325 123.614 22.8479L117.845 15.1556C117.614 14.8479 117.537 14.6172 117.537 14.4633C117.614 14.3095 117.537 13.771 117.999 13.6172Z" fill="#631E3B"/>
<path fill-rule="evenodd" clip-rule="evenodd" d="M171.538 21.5414L167.538 15.4645C167.384 15.2338 167.23 15.003 167.23 14.8491C167.23 14.6184 166.999 13.8492 167.461 13.6953H157.692L153.076 21.6183H150.461V26.1567C151.076 25.926 152.384 24.926 153.307 24.926H171.23C172.23 24.926 173.461 25.926 173.999 26.1567V21.6183H171.538M159.769 16.7722H161.922L164.692 21.5414H157.461L159.769 16.7722Z" fill="#631E3B"/>
<path fill-rule="evenodd" clip-rule="evenodd" d="M102.23 16.6923C101.615 15.923 100.923 15.3077 99.9226 14.7692C98.9226 14.1538 97.7688 13.7692 96.4611 13.4615C95.1534 13.1538 93.6919 13 92.1534 13C90.615 13 89.2304 13.1538 87.9227 13.4615C86.5381 13.7692 85.3843 14.2308 84.3843 14.7692C83.3843 15.3846 82.6151 16 82.0766 16.6923C81.5382 17.4615 81.2305 18.2307 81.2305 18.9999C81.2305 20.0768 81.692 21.0768 82.692 21.9999C83.692 22.9999 84.9997 23.6922 86.615 24.2307C88.3073 24.846 90.1535 25.0768 92.1534 25.0768C93.6919 25.0768 95.1534 24.923 96.4611 24.6153C97.7688 24.3076 98.9226 23.846 99.9995 23.3076C100.999 22.6922 101.769 22.0768 102.307 21.3845C102.846 20.6153 103.153 19.8461 103.153 19.0769C103.076 18.2307 102.769 17.4615 102.23 16.6923ZM96.1534 20.4615C95.6919 20.923 95.1534 21.2307 94.4611 21.4614C93.7688 21.6922 92.9996 21.8461 92.1534 21.8461C91.3073 21.8461 90.5381 21.6922 89.8458 21.4614C89.0765 21.2307 88.5381 20.923 88.1535 20.4615C87.7689 19.9999 87.5381 19.6153 87.5381 19.0769C87.5381 18.5384 87.7689 18.0769 88.1535 17.6923C88.615 17.2307 89.1535 16.923 89.8458 16.6923C90.5381 16.4615 91.3073 16.3846 92.1534 16.3846C92.9996 16.3846 93.7688 16.4615 94.4611 16.6923C95.2303 16.923 95.7688 17.2307 96.1534 17.6923C96.538 18.1538 96.7688 18.5384 96.7688 19.0769C96.7688 19.6153 96.538 19.9999 96.1534 20.4615Z" fill="#631E3B"/>
<path fill-rule="evenodd" clip-rule="evenodd" d="M78.7691 20.4615V25.2306C78.2306 25.1537 77.5383 25.1537 76.7691 25.1537C76.4614 25.1537 76.0768 25.1537 75.6152 25.2306C75.0768 25.1537 74.6922 25.1537 74.3076 25.1537C71.9999 25.1537 69.9999 24.923 68.0769 24.3076C66.1538 23.7691 64.6923 22.9999 63.6154 22.0768C62.5385 21.1538 62 20.1538 62 19.0769C62 18.2307 62.3846 17.4615 62.9231 16.6923C63.5384 15.923 64.4615 15.3077 65.5384 14.7692C66.6923 14.1538 67.923 13.7692 69.4615 13.4615C70.9999 13.1538 72.6153 13 74.3076 13C74.6152 13 75.0768 13 75.5383 13.0769C76.0768 13.1538 76.4614 13.1538 76.6922 13.1538C77.4614 13.1538 78.1537 13.0769 78.6921 13.0769V17.6923C78.0768 17.3846 77.4614 17.1538 76.6152 17C75.9229 16.6923 75.0768 16.6923 74.3076 16.6923C73.3845 16.6923 72.5383 16.7692 71.6922 17C70.923 17.2307 70.3076 17.4615 69.923 17.8461C69.4615 18.2307 69.2307 18.6153 69.2307 19.0769C69.2307 19.4615 69.4615 19.8461 69.8461 20.2307C70.3076 20.6153 70.8461 20.8461 71.6153 21.0768C72.3845 21.3076 73.2306 21.3845 74.2306 21.3845C75.0768 21.3845 75.9229 21.3076 76.6922 21.1538C77.5383 20.9999 78.2306 20.7692 78.7691 20.4615Z" fill="#631E3B"/>
<path fill-rule="evenodd" clip-rule="evenodd" d="M11.4996 42.7266C9.78108 42.7266 8.40625 44.1014 8.40625 45.7626C8.40625 47.4812 9.78108 48.856 11.4996 48.856C13.2182 48.856 14.593 47.4812 14.593 45.7626C14.593 44.1014 13.2182 42.7266 11.4996 42.7266ZM11.4996 48.3405C10.1248 48.3405 8.9791 47.1948 8.9791 45.7626C8.9791 44.3305 10.1248 43.1848 11.4996 43.1848C12.8745 43.1848 14.0201 44.3305 14.0201 45.7626C14.0201 47.1375 12.8745 48.3405 11.4996 48.3405ZM12.2443 45.7626C12.6453 45.5335 12.7026 45.3044 12.7026 45.0752C12.7026 44.2732 12.0725 44.1587 11.6715 44.1587H10.3539V47.252H10.9268V45.9918H11.3278C11.3851 45.9918 11.3851 45.9918 11.4423 45.9918C12.0152 45.9918 12.0152 46.2782 12.0152 46.5073C12.0152 47.0229 12.0152 47.0802 12.1297 47.252H12.7026C12.588 47.0229 12.588 46.9656 12.588 46.5073C12.7026 46.2209 12.6453 45.8772 12.2443 45.7626ZM11.6142 45.5908H10.9841V44.617H11.5569C11.9006 44.617 12.1297 44.7315 12.1297 45.0752C12.1297 45.3044 12.0725 45.5908 11.6142 45.5908Z" fill="#631E3B"/>
<path fill-rule="evenodd" clip-rule="evenodd" d="M47.9896 22.2789C49.078 22.5653 50.5674 23.1381 51.9423 24.0547V9.04612C50.0519 9.90539 48.1042 9.90539 46.7294 9.90539C45.4118 9.90539 43.8078 9.33254 39.0532 9.04612C37.7357 8.93155 36.3036 9.04612 34.8142 9.21797C30.9188 9.73353 26.8516 10.9365 24.3311 12.5978C21.8678 13.858 19.5765 15.7484 17.8006 17.7534C23.7009 19.8729 29.3721 22.1643 34.8142 24.6848C40.7718 27.3199 46.3857 30.1841 51.9423 33.1057V30.1841C47.0731 27.4345 42.7767 25.0858 36.991 22.5653C38.194 21.9924 40.8863 21.5915 42.9486 21.5915C44.7817 21.5915 46.2711 21.8206 47.9896 22.2789ZM34.8715 30.4133C40.7718 33.0484 46.3857 35.9126 51.9423 38.8914V35.9699C46.3857 33.0484 40.7718 30.1841 34.8715 27.5491C28.8566 24.7994 22.6698 22.2216 16.1394 19.9875C15.6238 20.7895 15.2801 21.5915 14.9364 22.4507C21.8678 24.8567 28.4556 27.4918 34.8715 30.4133ZM24.2738 44.9063C27.539 46.6248 31.2625 47.656 34.8715 48.1715C37.2201 48.5152 39.5688 48.6871 41.8029 48.6871C42.6049 48.6871 43.5214 48.6298 44.6671 48.5152C45.8128 48.3434 46.6721 48.2861 47.3595 48.2861C49.2499 48.2861 50.7393 48.4579 51.9995 48.7444V47.5414C46.3857 44.5053 40.7718 41.6984 34.8715 39.006C28.1119 35.9699 21.1804 33.1629 13.7907 30.6997C14.4781 37.2874 18.7745 42.0421 24.2738 44.9063ZM6 13.858V16.7795C8.63509 17.5242 11.2702 18.3262 13.7907 19.2428C14.5927 19.4719 15.3374 19.7583 16.1394 20.0448C16.6549 19.2428 17.2278 18.4981 17.8006 17.8107C16.4831 17.2951 15.1083 16.8368 13.7907 16.3785C11.2702 15.462 8.63509 14.6027 6 13.858ZM6 19.5865V22.508C8.63509 23.31 11.2702 24.0547 13.7907 24.9712C13.9053 25.0285 13.9626 25.0285 14.1344 25.0858C14.3063 24.2265 14.5927 23.31 14.9364 22.508C14.5354 22.3934 14.1344 22.2789 13.7907 22.107C11.2702 21.1905 8.63509 20.3885 6 19.5865ZM13.7334 27.7782C21.1231 30.2987 28.1119 33.1057 34.8715 36.199C40.7718 38.8341 46.3857 41.6984 51.9423 44.6772V41.7556C46.3857 38.7768 40.7718 35.9126 34.8715 33.2775C28.2264 30.2414 21.3523 27.4918 14.1344 25.0285C13.9626 25.7732 13.848 26.5752 13.7907 27.3199C13.7334 27.4918 13.7334 27.6063 13.7334 27.7782ZM6 28.2365C8.63509 29.0385 11.2702 29.8404 13.7907 30.6997V30.356C13.7334 29.8404 13.6761 29.3822 13.6761 28.8666C13.6761 28.4656 13.6761 28.1219 13.7334 27.7782C11.1556 26.9189 8.63509 26.1169 6 25.3722V28.2365Z" fill="#631E3B"/>
</svg>
